<?xml version="1.0" encoding="utf-8"?>
<svg viewBox="0.93 0.07 68.65 95.22" width="68.65" height="95.22" xmlns="http://www.w3.org/2000/svg">
  <style>
    path {
    fill: black;
    }
    @media (prefers-color-scheme: dark) {
    path {
    fill: white;
    }
    }
  </style>
  <path d="M69.58,39.36 L69.58,39.13 C69.58,36.65 67.57,34.63 65.08,34.63 L64.85,34.63 C63.87,34.63 62.97,34.94 62.24,35.47 L39.87,22.56 C39.88,22.45 39.89,22.33 39.89,22.22 L39.89,21.99 C39.89,19.51 37.88,17.49 35.39,17.49 L35.16,17.49 C32.68,17.49 30.66,19.5 30.66,21.99 L30.66,22.22 C30.66,22.33 30.67,22.45 30.68,22.56 L8.31,35.47 C8.05,35.29 7.78,35.13 7.48,35 L7.48,8.93 C9.09,8.2 10.21,6.59 10.21,4.71 C10.21,2.15 8.13,0.07 5.57,0.07 C3.01,0.07 0.93,2.15 0.93,4.71 C0.93,6.59 2.05,8.21 3.66,8.93 L3.66,35 C2.07,35.69 0.95,37.28 0.95,39.13 L0.95,39.36 C0.95,41.21 2.07,42.79 3.66,43.49 L3.66,69.29 C2.07,69.98 0.95,71.57 0.95,73.42 L0.95,73.65 C0.95,76.13 2.96,78.15 5.45,78.15 L5.68,78.15 C6.65,78.15 7.55,77.84 8.29,77.31 L30.66,90.22 C30.65,90.33 30.64,90.44 30.64,90.56 L30.64,90.79 C30.64,93.27 32.65,95.29 35.14,95.29 L35.37,95.29 C37.85,95.29 39.87,93.28 39.87,90.79 L39.87,90.56 C39.87,90.44 39.86,90.33 39.85,90.22 L62.23,77.3 C62.97,77.83 63.87,78.14 64.84,78.14 L65.07,78.14 C67.55,78.14 69.57,76.13 69.57,73.64 L69.57,73.41 C69.57,71.56 68.45,69.98 66.86,69.28 L66.86,43.48 C68.46,42.79 69.58,41.21 69.58,39.36 Z M63.06,68.57 C60.93,65.08 57.31,61.29 52.88,57.61 C51.86,58.42 50.82,59.22 49.77,60 C55.44,64.65 59.09,68.96 60.58,72 C60.43,72.44 60.35,72.92 60.35,73.41 L60.35,73.64 C60.35,73.75 60.36,73.87 60.37,73.98 L38,86.89 C37.43,86.48 36.75,86.2 36.02,86.1 C33.19,81.42 30.48,70.81 30.48,56.38 C30.48,54.14 30.55,52 30.67,49.96 C29.39,49.32 28.16,48.73 26.97,48.2 C26.77,50.89 26.67,53.64 26.67,56.38 C26.67,67.99 28.45,79.69 31.9,86.52 L11.3,74.62 C15.15,74.62 20.16,73.43 25.75,71.25 C25.57,69.97 25.42,68.66 25.3,67.34 C17.93,70.33 12.26,71.25 9.25,70.64 C8.79,70.05 8.19,69.58 7.5,69.28 L7.5,43.48 C8.2,43.18 8.8,42.7 9.26,42.12 C13.87,41.2 24.68,43.84 38.26,51.96 C40.07,53.04 41.78,54.14 43.39,55.23 C44.54,54.43 45.62,53.63 46.64,52.85 C44.57,51.4 42.41,50.01 40.21,48.69 C29.06,42.03 18.27,38.15 11.31,38.14 L31.92,26.24 C30.11,29.83 28.76,34.76 27.89,40.31 C29.07,40.8 30.28,41.33 31.51,41.9 C32.55,34.84 34.27,29.59 36.04,26.66 C36.77,26.56 37.45,26.28 38.02,25.87 L60.39,38.78 C60.38,38.89 60.37,39 60.37,39.12 L60.37,39.35 C60.37,39.85 60.45,40.32 60.6,40.77 C58.26,45.54 50.62,53.41 38.26,60.8 C36.34,61.95 34.47,62.99 32.66,63.92 C32.76,65.34 32.89,66.7 33.03,68 C35.38,66.83 37.78,65.51 40.2,64.07 C50.05,58.18 59.11,50.66 63.07,44.2 L63.07,68.57 L63.06,68.57 Z" id="Shape"/>
</svg>
