<svg id="Layer_1" data-name="Layer 1" xmlns="http://www.w3.org/2000/svg" viewBox="0 0 304.55 95.21"><defs><style>.cls-1{fill:#231f20;}.cls-2{fill:#19a1a1;}</style></defs><title>HL Besu Logo</title><polygon class="cls-1" points="97.91 21.42 106.61 21.37 106.66 30.15 111.14 30.13 111.03 9.82 106.55 9.84 106.59 17.41 97.89 17.46 97.85 9.88 93.37 9.91 93.48 30.22 97.96 30.2 97.91 21.42"/><polygon class="cls-1" points="121.99 30.21 126.47 30.19 126.42 21.52 134 9.83 128.69 9.86 124.16 17.49 119.82 9.9 114.25 9.94 121.95 21.54 121.99 30.21"/><path class="cls-1" d="M172.67,38.24l0-7.92h3.27a14.66,14.66,0,0,0,3-.32,6.52,6.52,0,0,0,2.38-1A5,5,0,0,0,182.84,27a7,7,0,0,0,.56-3,6.47,6.47,0,0,0-.64-3,5,5,0,0,0-1.67-1.88,6.9,6.9,0,0,0-2.46-1,15.12,15.12,0,0,0-3-.27l-7.56,0,.11,20.31Zm2.21-16.54a12.18,12.18,0,0,1,1.32.07,3.77,3.77,0,0,1,1.25.32,2.32,2.32,0,0,1,.93.73,2,2,0,0,1,.36,1.24,2.42,2.42,0,0,1-.26,1.2,2.16,2.16,0,0,1-.72.75,3.16,3.16,0,0,1-1,.39,5.5,5.5,0,0,1-1.16.12h-3l0-4.81Z" transform="translate(-30.95 -8.07)"/><polygon class="cls-1" points="169.99 30.14 169.97 26.01 160.12 26.06 160.09 21.93 168.91 21.88 168.89 17.75 160.07 17.8 160.05 14.01 169.39 13.96 169.37 9.83 155.55 9.9 155.66 30.21 169.99 30.14"/><path class="cls-1" d="M215.09,38.21l5.37,0-5.22-8.55a5,5,0,0,0,3.26-1.93A6,6,0,0,0,219.61,24a6.4,6.4,0,0,0-.64-3,4.92,4.92,0,0,0-1.67-1.88,6.79,6.79,0,0,0-2.45-1,13.27,13.27,0,0,0-2.94-.29L204,18l.1,20.32,4.48,0,0-8.12h2.22Zm-6.53-11.88,0-4.61,2.93,0a8.65,8.65,0,0,1,1.23.08,3.55,3.55,0,0,1,1.13.32A2,2,0,0,1,215,24a2.06,2.06,0,0,1-.36,1.29,2.12,2.12,0,0,1-.9.68,4.12,4.12,0,0,1-1.22.26c-.44,0-.87.05-1.27.05Z" transform="translate(-30.95 -8.07)"/><polygon class="cls-1" points="205.39 30.11 205.37 25.98 197.07 26.02 196.98 9.84 192.5 9.86 192.61 30.18 205.39 30.11"/><polygon class="cls-1" points="222.93 30.13 222.91 26 213.06 26.05 213.04 21.91 221.86 21.87 221.83 17.74 213.02 17.78 213 14 222.33 13.95 222.31 9.81 208.5 9.89 208.6 30.2 222.93 30.13"/><path class="cls-1" d="M272.39,35.59a9.46,9.46,0,0,0,2.49-3.17,9.59,9.59,0,0,0,.91-4.35,10.74,10.74,0,0,0-1-4.73,8.74,8.74,0,0,0-2.62-3.16,10.72,10.72,0,0,0-3.84-1.75,20,20,0,0,0-4.65-.52L257,18l.1,20.31,7.33,0a14.17,14.17,0,0,0,4.33-.69A11.18,11.18,0,0,0,272.39,35.59Zm-8.51-1.49h-2.33l-.06-12,2.64,0a9.92,9.92,0,0,1,2.69.35,6.67,6.67,0,0,1,2.23,1.06,5.16,5.16,0,0,1,1.51,1.82,5.68,5.68,0,0,1,.58,2.59,6.92,6.92,0,0,1-.55,2.92,5.13,5.13,0,0,1-1.52,1.93,6.29,6.29,0,0,1-2.31,1.06A13.08,13.08,0,0,1,263.88,34.1Z" transform="translate(-30.95 -8.07)"/><path class="cls-1" d="M290.43,26.19l0,4.13h3.65l0,3.3a9.63,9.63,0,0,1-1.69.68,8.56,8.56,0,0,1-2.53.34,6.58,6.58,0,0,1-2.6-.47,5.6,5.6,0,0,1-2-1.36,5.86,5.86,0,0,1-1.29-2,7.64,7.64,0,0,1-.46-2.63,7.41,7.41,0,0,1,.43-2.61,5.84,5.84,0,0,1,1.27-2.09,5.71,5.71,0,0,1,2-1.37,6.5,6.5,0,0,1,2.59-.5,7.36,7.36,0,0,1,2.88.47,6.38,6.38,0,0,1,2.07,1.42L297.92,20a8.86,8.86,0,0,0-3.61-2,16,16,0,0,0-4.5-.56,12.23,12.23,0,0,0-4.39.77A10,10,0,0,0,282,20.34a9.59,9.59,0,0,0-2.27,3.38,11.46,11.46,0,0,0-.79,4.43,11.36,11.36,0,0,0,.84,4.41,9.62,9.62,0,0,0,2.3,3.36A9.93,9.93,0,0,0,285.52,38a12.54,12.54,0,0,0,4.4.72,20,20,0,0,0,4.39-.48,16.27,16.27,0,0,0,4.13-1.51l-.06-10.62Z" transform="translate(-30.95 -8.07)"/><polygon class="cls-1" points="285.03 29.66 285.01 25.53 275.16 25.58 275.14 21.45 283.96 21.4 283.93 17.27 275.12 17.31 275.1 13.53 284.43 13.48 284.41 9.35 270.6 9.42 270.7 29.73 285.03 29.66"/><path class="cls-1" d="M323.67,37.76l0-8.12h2.21l4.29,8.1,5.37,0-5.21-8.55a5.09,5.09,0,0,0,3.26-1.92,6,6,0,0,0,1.1-3.67,6.59,6.59,0,0,0-.63-3,4.94,4.94,0,0,0-1.68-1.88,6.74,6.74,0,0,0-2.44-1,14,14,0,0,0-2.95-.29l-7.86,0,.1,20.32Zm2.84-16.54a8.7,8.7,0,0,1,1.24.08,3.49,3.49,0,0,1,1.12.33,2.08,2.08,0,0,1,.81.69,2.17,2.17,0,0,1,.32,1.24,2.13,2.13,0,0,1-.35,1.29,2.16,2.16,0,0,1-.9.68,3.89,3.89,0,0,1-1.22.26c-.45,0-.88.05-1.28.05l-2.64,0,0-4.62Z" transform="translate(-30.95 -8.07)"/><path class="cls-2" d="M124.77,53.71H143c7.13,0,11.5,4.3,11.5,10.45a9.32,9.32,0,0,1-7.2,9.41c4.37.67,8,5.16,8,10.08,0,6.58-4.37,11.06-11.87,11.06H124.77Zm17.4,17.76c4.61,0,7.07-2.82,7.07-6.57s-2.46-6.64-7.07-6.64H129.88V71.47Zm.25,18.69c4.79,0,7.62-2.7,7.62-7.07,0-3.75-2.58-7.07-7.62-7.07H129.88V90.16Z" transform="translate(-30.95 -8.07)"/><path class="cls-2" d="M162.21,53.71h26.87v4.55H167.32V71.47h21.33V76H167.32V90.16h21.76v4.55H162.21Z" transform="translate(-30.95 -8.07)"/><path class="cls-2" d="M196.52,85.06a17.33,17.33,0,0,0,12.91,5.84c7.31,0,9.65-3.93,9.65-7.07,0-4.92-5-6.27-10.39-7.74-6.58-1.73-13.89-3.57-13.89-11.62,0-6.77,6-11.38,14.08-11.38,6.27,0,11.12,2.09,14.57,5.72l-3.08,3.75a15.69,15.69,0,0,0-11.86-4.92c-4.92,0-8.43,2.65-8.43,6.52,0,4.12,4.74,5.35,10,6.76,6.7,1.78,14.33,3.87,14.33,12.48,0,6-4.06,12-15.13,12-7.13,0-12.35-2.7-15.73-6.52Z" transform="translate(-30.95 -8.07)"/><path class="cls-2" d="M230.76,53.71h5.1v25c0,7.5,4.06,12.23,11.62,12.23s11.62-4.73,11.62-12.23v-25h5.11v25c0,10.2-5.6,16.72-16.73,16.72s-16.72-6.58-16.72-16.66Z" transform="translate(-30.95 -8.07)"/><path class="cls-2" d="M99.58,47.36v-.24a4.5,4.5,0,0,0-4.5-4.49h-.23a4.47,4.47,0,0,0-2.62.84L69.87,30.56c0-.12,0-.23,0-.34V30a4.5,4.5,0,0,0-4.5-4.49h-.23A4.49,4.49,0,0,0,60.66,30v.24c0,.11,0,.22,0,.34L38.31,43.47a4.72,4.72,0,0,0-.82-.47V16.93a4.64,4.64,0,1,0-3.81,0V43A4.5,4.5,0,0,0,31,47.12v.24a4.49,4.49,0,0,0,2.71,4.12v25.8A4.51,4.51,0,0,0,31,81.41v.23a4.5,4.5,0,0,0,4.5,4.5h.23a4.51,4.51,0,0,0,2.61-.84L60.68,98.21c0,.11,0,.22,0,.34v.23a4.5,4.5,0,0,0,4.5,4.5h.23a4.51,4.51,0,0,0,4.5-4.5v-.23c0-.12,0-.23,0-.34L92.23,85.3a4.54,4.54,0,0,0,2.62.84h.23a4.51,4.51,0,0,0,4.5-4.5v-.23a4.5,4.5,0,0,0-2.72-4.13V51.48A4.48,4.48,0,0,0,99.58,47.36ZM93.06,76.57c-2.13-3.49-5.75-7.28-10.18-11-1,.81-2,1.61-3.11,2.38,5.67,4.65,9.32,9,10.81,12a4.34,4.34,0,0,0-.23,1.41v.23c0,.11,0,.23,0,.34L68,94.89a4.43,4.43,0,0,0-2-.79c-2.83-4.68-5.54-15.29-5.54-29.72,0-2.24.07-4.37.19-6.42-1.28-.64-2.51-1.23-3.7-1.76-.19,2.69-.29,5.44-.29,8.18,0,11.61,1.78,23.31,5.23,30.14L41.3,82.62c3.84,0,8.85-1.19,14.45-3.37-.18-1.28-.33-2.59-.46-3.91-7.37,3-13,3.9-16,3.3a4.49,4.49,0,0,0-1.75-1.36V51.48a4.49,4.49,0,0,0,1.75-1.36c4.61-.92,15.42,1.72,29,9.84,1.82,1.08,3.52,2.17,5.13,3.27,1.15-.81,2.23-1.6,3.25-2.38-2.07-1.45-4.23-2.85-6.43-4.16C59,50,48.26,46.15,41.3,46.14l20.6-11.9a49.4,49.4,0,0,0-4,14.07c1.18.49,2.39,1,3.62,1.6,1-7.06,2.76-12.31,4.53-15.25a4.43,4.43,0,0,0,2-.79L90.37,46.78c0,.12,0,.23,0,.34v.24a4.49,4.49,0,0,0,.23,1.42c-2.34,4.77-10,12.64-22.34,20C66.32,70,64.45,71,62.65,71.93c.1,1.43.22,2.78.37,4.08,2.35-1.18,4.75-2.49,7.17-3.94,9.86-5.88,18.91-13.4,22.87-19.87Z" transform="translate(-30.95 -8.07)"/></svg>