<?xml version="1.0" encoding="UTF-8"?>
<svg width="306px" height="96px" viewBox="0 0 306 96" version="1.1" xmlns="http://www.w3.org/2000/svg" xmlns:xlink="http://www.w3.org/1999/xlink">
    <!-- Generator: Sketch 53.2 (72643) - https://sketchapp.com -->
    <title>HL Besu Logo (1)</title>
    <desc>Created with Sketch.</desc>
    <g id="Page-1" stroke="none" stroke-width="1" fill="none" fill-rule="evenodd">
        <g id="HL-Besu-Logo-(1)" fill="#FFFFFF" fill-rule="nonzero">
            <g id="Group" transform="translate(94.000000, 9.000000)">
                <polygon id="Path" points="4.86 12.49 13.56 12.44 13.61 21.22 18.09 21.2 17.98 0.88 13.5 0.91 13.54 8.48 4.84 8.53 4.8 0.95 0.32 0.98 0.43 21.29 4.91 21.27"></polygon>
                <polygon id="Path" points="28.94 21.28 33.42 21.25 33.37 12.59 40.95 0.9 35.64 0.93 31.11 8.55 26.76 0.97 21.19 1 28.9 12.61"></polygon>
                <path d="M48.67,21.24 L48.63,13.32 L51.9,13.3 C52.97,13.29 53.97,13.19 54.89,12.98 C55.81,12.78 56.6,12.43 57.27,11.95 C57.94,11.47 58.46,10.82 58.84,10.02 C59.22,9.21 59.4,8.22 59.4,7.03 C59.39,5.83 59.18,4.83 58.77,4.03 C58.35,3.24 57.8,2.61 57.1,2.14 C56.4,1.68 55.58,1.35 54.64,1.17 C53.7,0.98 52.71,0.89 51.65,0.9 L44.1,0.94 L44.21,21.25 L48.67,21.24 Z M50.88,4.7 C51.3,4.7 51.74,4.72 52.2,4.76 C52.66,4.81 53.08,4.91 53.45,5.08 C53.83,5.25 54.13,5.49 54.37,5.81 C54.61,6.12 54.73,6.54 54.73,7.06 C54.73,7.54 54.64,7.94 54.46,8.25 C54.28,8.57 54.04,8.82 53.75,9 C53.45,9.18 53.12,9.32 52.75,9.39 C52.37,9.47 51.99,9.51 51.59,9.51 L48.6,9.53 L48.57,4.71 L50.88,4.7 Z" id="Shape"></path>
                <polygon id="Path" points="76.94 21.21 76.92 17.08 67.06 17.13 67.04 13 75.86 12.95 75.84 8.82 67.02 8.86 67 5.08 76.33 5.03 76.31 0.9 62.5 0.97 62.61 21.28"></polygon>
                <path d="M91.09,21.21 L96.46,21.18 L91.24,12.63 C92.68,12.35 93.77,11.72 94.5,10.71 C95.24,9.7 95.61,8.48 95.6,7.04 C95.59,5.86 95.38,4.87 94.97,4.07 C94.56,3.28 94,2.65 93.3,2.18 C92.6,1.72 91.78,1.38 90.85,1.19 C89.92,0.99 88.94,0.9 87.91,0.9 L80.04,0.94 L80.14,21.25 L84.62,21.23 L84.58,13.11 L86.79,13.1 L91.09,21.21 Z M84.56,9.33 L84.54,4.71 L87.47,4.7 C87.87,4.7 88.28,4.72 88.7,4.78 C89.12,4.84 89.5,4.94 89.82,5.1 C90.15,5.26 90.42,5.49 90.63,5.8 C90.84,6.1 90.95,6.52 90.95,7.03 C90.95,7.58 90.83,8.01 90.6,8.32 C90.36,8.63 90.06,8.85 89.7,9 C89.34,9.15 88.93,9.23 88.48,9.26 C88.03,9.29 87.6,9.31 87.2,9.31 L84.56,9.33 Z" id="Shape"></path>
                <polygon id="Path" points="112.34 21.18 112.32 17.05 104.02 17.09 103.93 0.91 99.45 0.93 99.56 21.25"></polygon>
                <polygon id="Path" points="129.88 21.2 129.86 17.07 120.01 17.12 119.99 12.98 128.8 12.94 128.78 8.81 119.97 8.85 119.95 5.06 129.28 5.02 129.26 0.88 115.44 0.96 115.55 21.27"></polygon>
                <path d="M148.39,18.59 C149.44,17.74 150.27,16.68 150.88,15.42 C151.5,14.17 151.8,12.71 151.79,11.07 C151.78,9.21 151.45,7.64 150.81,6.34 C150.16,5.04 149.29,3.99 148.19,3.18 C147.1,2.37 145.81,1.79 144.35,1.43 C142.88,1.08 141.34,0.9 139.71,0.91 L132.99,0.94 L133.1,21.25 L140.42,21.21 C141.93,21.2 143.38,20.98 144.75,20.53 C146.12,20.1 147.34,19.44 148.39,18.59 Z M139.88,17.1 L137.55,17.11 L137.49,5.06 L140.13,5.05 C141.07,5.05 141.97,5.16 142.82,5.4 C143.67,5.63 144.42,5.99 145.05,6.46 C145.68,6.94 146.19,7.54 146.57,8.27 C146.95,9.01 147.14,9.87 147.14,10.86 C147.15,12.01 146.96,12.98 146.59,13.77 C146.22,14.57 145.71,15.21 145.06,15.7 C144.41,16.19 143.64,16.54 142.75,16.76 C141.87,16.98 140.91,17.09 139.88,17.1 Z" id="Shape"></path>
                <path d="M166.43,9.19 L166.45,13.32 L170.1,13.3 L170.12,16.6 C169.7,16.83 169.14,17.06 168.43,17.28 C167.72,17.5 166.88,17.62 165.9,17.62 C164.94,17.62 164.07,17.47 163.3,17.15 C162.52,16.83 161.86,16.38 161.3,15.8 C160.74,15.22 160.31,14.53 160.01,13.74 C159.71,12.95 159.56,12.08 159.55,11.12 C159.54,10.18 159.69,9.31 159.98,8.51 C160.27,7.7 160.7,7.01 161.25,6.42 C161.8,5.83 162.47,5.38 163.24,5.05 C164.01,4.72 164.88,4.55 165.84,4.55 C166.99,4.54 167.95,4.7 168.71,5.02 C169.48,5.34 170.17,5.82 170.79,6.45 L173.93,2.99 C172.89,2.04 171.69,1.37 170.32,0.98 C168.95,0.59 167.45,0.41 165.82,0.42 C164.23,0.43 162.77,0.68 161.43,1.19 C160.09,1.69 158.94,2.41 157.97,3.34 C157,4.27 156.24,5.4 155.7,6.72 C155.16,8.04 154.9,9.52 154.91,11.14 C154.92,12.77 155.2,14.24 155.75,15.56 C156.3,16.88 157.07,18 158.05,18.92 C159.03,19.84 160.19,20.55 161.53,21.04 C162.87,21.53 164.34,21.77 165.93,21.76 C167.42,21.75 168.89,21.59 170.32,21.28 C171.75,20.97 173.13,20.46 174.45,19.77 L174.39,9.15 L166.43,9.19 Z" id="Path"></path>
                <polygon id="Path" points="191.98 20.73 191.96 16.6 182.11 16.65 182.09 12.51 190.9 12.47 190.88 8.34 182.07 8.38 182.05 4.6 191.38 4.55 191.36 0.42 177.55 0.49 177.65 20.8"></polygon>
                <path d="M199.67,20.76 L199.63,12.64 L201.84,12.63 L206.13,20.73 L211.5,20.7 L206.29,12.15 C207.73,11.87 208.81,11.23 209.55,10.23 C210.29,9.22 210.66,8 210.65,6.56 C210.64,5.38 210.43,4.39 210.02,3.59 C209.6,2.8 209.05,2.17 208.34,1.7 C207.64,1.24 206.82,0.9 205.89,0.71 C204.96,0.51 203.98,0.42 202.95,0.42 L195.08,0.46 L195.19,20.77 L199.67,20.76 Z M202.51,4.22 C202.91,4.22 203.32,4.24 203.75,4.3 C204.17,4.35 204.55,4.46 204.87,4.62 C205.2,4.78 205.47,5.01 205.68,5.32 C205.89,5.62 206,6.04 206,6.55 C206,7.1 205.88,7.53 205.65,7.84 C205.41,8.15 205.11,8.37 204.75,8.52 C204.39,8.67 203.98,8.75 203.53,8.79 C203.08,8.82 202.65,8.84 202.25,8.84 L199.61,8.85 L199.59,4.23 L202.51,4.22 Z" id="Shape"></path>
            </g>
            <g id="Group" transform="translate(94.000000, 45.000000)">
                <path d="M0.77,0.71 L19.03,0.71 C26.16,0.71 30.53,5.01 30.53,11.16 C30.53,16.32 27.09,19.77 23.34,20.57 C27.71,21.25 31.33,25.73 31.33,30.65 C31.33,37.23 26.97,41.72 19.46,41.72 L0.77,41.72 L0.77,0.71 L0.77,0.71 Z M18.17,18.47 C22.78,18.47 25.24,15.64 25.24,11.89 C25.24,8.2 22.78,5.25 18.17,5.25 L5.88,5.25 L5.88,18.47 L18.17,18.47 Z M18.42,37.16 C23.21,37.16 26.04,34.45 26.04,30.09 C26.04,26.34 23.46,23.02 18.42,23.02 L5.88,23.02 L5.88,37.16 L18.42,37.16 L18.42,37.16 Z" id="Shape"></path>
                <polygon id="Path" points="38.21 0.71 65.08 0.71 65.08 5.26 43.32 5.26 43.32 18.48 64.65 18.48 64.65 23.03 43.32 23.03 43.32 37.17 65.08 37.17 65.08 41.72 38.21 41.72 38.21 0.71"></polygon>
                <path d="M72.52,32.06 C75.23,35.07 79.65,37.9 85.43,37.9 C92.75,37.9 95.08,33.97 95.08,30.83 C95.08,25.91 90.1,24.56 84.69,23.08 C78.11,21.36 70.8,19.51 70.8,11.46 C70.8,4.7 76.83,0.09 84.88,0.09 C91.15,0.09 96.01,2.18 99.45,5.81 L96.38,9.56 C93.31,6.18 89,4.64 84.51,4.64 C79.59,4.64 76.09,7.28 76.09,11.16 C76.09,15.28 80.82,16.51 86.05,17.92 C92.75,19.7 100.37,21.79 100.37,30.4 C100.37,36.36 96.31,42.45 85.25,42.45 C78.12,42.45 72.89,39.74 69.51,35.93 L72.52,32.06 Z" id="Path"></path>
                <path d="M106.76,0.71 L111.86,0.71 L111.86,25.67 C111.86,33.17 115.92,37.9 123.48,37.9 C131.04,37.9 135.1,33.17 135.1,25.67 L135.1,0.71 L140.2,0.71 L140.2,25.73 C140.2,35.94 134.61,42.45 123.48,42.45 C112.35,42.45 106.76,35.87 106.76,25.79 L106.76,0.71 Z" id="Path"></path>
            </g>
            <path d="M69.58,39.36 L69.58,39.13 C69.58,36.65 67.57,34.63 65.08,34.63 L64.85,34.63 C63.87,34.63 62.97,34.94 62.24,35.47 L39.87,22.56 C39.88,22.45 39.89,22.33 39.89,22.22 L39.89,21.99 C39.89,19.51 37.88,17.49 35.39,17.49 L35.16,17.49 C32.68,17.49 30.66,19.5 30.66,21.99 L30.66,22.22 C30.66,22.33 30.67,22.45 30.68,22.56 L8.31,35.47 C8.05,35.29 7.78,35.13 7.48,35 L7.48,8.93 C9.09,8.2 10.21,6.59 10.21,4.71 C10.21,2.15 8.13,0.07 5.57,0.07 C3.01,0.07 0.93,2.15 0.93,4.71 C0.93,6.59 2.05,8.21 3.66,8.93 L3.66,35 C2.07,35.69 0.95,37.28 0.95,39.13 L0.95,39.36 C0.95,41.21 2.07,42.79 3.66,43.49 L3.66,69.29 C2.07,69.98 0.95,71.57 0.95,73.42 L0.95,73.65 C0.95,76.13 2.96,78.15 5.45,78.15 L5.68,78.15 C6.65,78.15 7.55,77.84 8.29,77.31 L30.66,90.22 C30.65,90.33 30.64,90.44 30.64,90.56 L30.64,90.79 C30.64,93.27 32.65,95.29 35.14,95.29 L35.37,95.29 C37.85,95.29 39.87,93.28 39.87,90.79 L39.87,90.56 C39.87,90.44 39.86,90.33 39.85,90.22 L62.23,77.3 C62.97,77.83 63.87,78.14 64.84,78.14 L65.07,78.14 C67.55,78.14 69.57,76.13 69.57,73.64 L69.57,73.41 C69.57,71.56 68.45,69.98 66.86,69.28 L66.86,43.48 C68.46,42.79 69.58,41.21 69.58,39.36 Z M63.06,68.57 C60.93,65.08 57.31,61.29 52.88,57.61 C51.86,58.42 50.82,59.22 49.77,60 C55.44,64.65 59.09,68.96 60.58,72 C60.43,72.44 60.35,72.92 60.35,73.41 L60.35,73.64 C60.35,73.75 60.36,73.87 60.37,73.98 L38,86.89 C37.43,86.48 36.75,86.2 36.02,86.1 C33.19,81.42 30.48,70.81 30.48,56.38 C30.48,54.14 30.55,52 30.67,49.96 C29.39,49.32 28.16,48.73 26.97,48.2 C26.77,50.89 26.67,53.64 26.67,56.38 C26.67,67.99 28.45,79.69 31.9,86.52 L11.3,74.62 C15.15,74.62 20.16,73.43 25.75,71.25 C25.57,69.97 25.42,68.66 25.3,67.34 C17.93,70.33 12.26,71.25 9.25,70.64 C8.79,70.05 8.19,69.58 7.5,69.28 L7.5,43.48 C8.2,43.18 8.8,42.7 9.26,42.12 C13.87,41.2 24.68,43.84 38.26,51.96 C40.07,53.04 41.78,54.14 43.39,55.23 C44.54,54.43 45.62,53.63 46.64,52.85 C44.57,51.4 42.41,50.01 40.21,48.69 C29.06,42.03 18.27,38.15 11.31,38.14 L31.92,26.24 C30.11,29.83 28.76,34.76 27.89,40.31 C29.07,40.8 30.28,41.33 31.51,41.9 C32.55,34.84 34.27,29.59 36.04,26.66 C36.77,26.56 37.45,26.28 38.02,25.87 L60.39,38.78 C60.38,38.89 60.37,39 60.37,39.12 L60.37,39.35 C60.37,39.85 60.45,40.32 60.6,40.77 C58.26,45.54 50.62,53.41 38.26,60.8 C36.34,61.95 34.47,62.99 32.66,63.92 C32.76,65.34 32.89,66.7 33.03,68 C35.38,66.83 37.78,65.51 40.2,64.07 C50.05,58.18 59.11,50.66 63.07,44.2 L63.07,68.57 L63.06,68.57 Z" id="Shape"></path>
        </g>
    </g>
</svg>